# xmcd CD database file
#
# Track frame offsets:
#	150
#	12755
#	27640
#	41852
#	55750
#	70174
#	84298
#	98862
#	113374
#	128066
#	141745
#	154599
#	167538
#	180409
#	191912
#	203581
#	215294
#	229075
#	241881
#
# Disc length: 3387 seconds
#
# Revision: 1
# Processed by: cddbd v1.5.2PL0 Copyright (c) Steve Scherf et al.
# Submitted via: CDex 1.51
#
DISCID=fa0d3913
DTITLE=Jimmy Dorsey and his original Dorseyland Jazz Band - complete 1949~1950 Columbie master takes
DYEAR=2001
DGENRE=Jazz
TTITLE0=Johnson Rag
TTITLE1=Struttin' with Some Barbecue
TTITLE2=Charlie, My Boy
TTITLE3=Chimes Blues
TTITLE4=South Rampart Street Parade
TTITLE5=Tin Roof Blues
TTITLE6=Jazz Me Blues
TTITLE7=Muskrat Ramble
TTITLE8=Panama
TTITLE9=High Society
TTITLE10=Rag Mop
TTITLE11=That's a Plenty
TTITLE12=When You Wore a Tulip
TTITLE13=Clap Hands, Here Comes Charlie
TTITLE14=It's a Long Way to Tipperary
TTITLE15=Let a Smile be Your Umbrella
TTITLE16=When You're Smiling
TTITLE17=Levee Blues
TTITLE18=Dixieland Band from Santa Claus Land
EXTD=YEAR: 2001
EXTT0=
EXTT1=
EXTT2=
EXTT3=
EXTT4=
EXTT5=
EXTT6=
EXTT7=
EXTT8=
EXTT9=
EXTT10=
EXTT11=
EXTT12=
EXTT13=
EXTT14=
EXTT15=
EXTT16=
EXTT17=
EXTT18=
PLAYORDER=
